<svg xmlns="http://www.w3.org/2000/svg" viewBox="0 0 512 512" role="img" aria-label="Success Tickets">
  <rect width="512" height="512" fill="#111827"/>
  <circle cx="256" cy="256" r="208" fill="#1f2937"/>
  <path d="M136 184c0-26.51 21.49-48 48-48h144c26.51 0 48 21.49 48 48v28c-24.3 0-44 19.7-44 44s19.7 44 44 44v28c0 26.51-21.49 48-48 48H184c-26.51 0-48-21.49-48-48v-28c24.3 0 44-19.7 44-44s-19.7-44-44-44v-28Z" fill="#ffffff"/>
  <path d="M224 274.2 201.4 251.6 180 273l44 44 108-108-21.4-21.4L224 274.2Z" fill="#16a34a"/>
</svg>
